<?xml version="1.0" standalone="no"?>
<!DOCTYPE svg PUBLIC "-//W3C//DTD SVG 20010904//EN"
 "http://www.w3.org/TR/2001/REC-SVG-20010904/DTD/svg10.dtd">
<svg version="1.0" xmlns="http://www.w3.org/2000/svg"
 width="400.000000pt" height="400.000000pt" viewBox="0 0 400.000000 400.000000"
 preserveAspectRatio="xMidYMid meet">
<metadata>
Created by potrace 1.11, written by Peter Selinger 2001-2013
</metadata>
<g transform="translate(0.000000,400.000000) scale(0.100000,-0.100000)"
fill="#000000" stroke="none">
<path d="M770 3335 c-8 -2 -49 -8 -90 -15 -367 -57 -607 -295 -649 -640 -44
-375 130 -690 463 -840 111 -49 349 -117 516 -145 67 -11 241 -65 288 -89 61
-32 110 -80 136 -136 29 -64 29 -225 -1 -290 -51 -111 -158 -186 -303 -215
-75 -14 -293 -14 -370 0 -55 10 -152 45 -185 65 -112 70 -142 142 -144 338
l-1 92 -214 0 -214 0 0 -375 0 -375 214 0 214 0 0 110 c0 61 4 110 9 110 5 0
16 -10 24 -23 31 -46 98 -107 154 -140 130 -76 236 -99 428 -92 159 5 178 8
292 41 329 95 539 310 597 610 21 107 14 284 -14 382 -34 122 -86 212 -172
300 -145 148 -344 234 -713 307 -264 52 -389 99 -467 176 -60 60 -83 130 -76
233 6 88 33 148 92 209 91 92 187 122 391 121 155 0 227 -15 326 -64 117 -60
159 -146 162 -332 l2 -113 215 0 214 0 0 373 1 372 -216 0 -215 0 1 -105 c0
-58 -3 -105 -7 -105 -4 0 -17 15 -30 33 -100 143 -288 223 -523 224 -66 0
-127 -1 -135 -2z"/>
<path d="M1940 3163 l0 -128 130 3 130 3 0 -1040 0 -1041 -130 0 -130 0 0
-125 0 -125 605 0 605 0 0 125 0 125 -175 0 -175 0 0 450 1 450 244 0 245 0 0
-110 0 -111 137 3 136 3 0 340 c-1 187 -2 346 -2 353 -1 9 -35 12 -136 12
l-135 0 0 -110 0 -110 -245 0 -245 0 3 443 2 442 383 3 c359 2 382 1 383 -15
0 -10 1 -105 1 -210 l0 -193 214 0 214 0 0 345 0 345 -1030 0 -1030 0 0 -127z"/>
</g>
</svg>
