<?xml version="1.0" standalone="no"?>
<!DOCTYPE svg PUBLIC "-//W3C//DTD SVG 20010904//EN"
 "http://www.w3.org/TR/2001/REC-SVG-20010904/DTD/svg10.dtd">
<svg version="1.0" xmlns="http://www.w3.org/2000/svg"
 width="400.000000pt" height="400.000000pt" viewBox="0 0 400.000000 400.000000"
 preserveAspectRatio="xMidYMid meet">
<metadata>
Created by potrace 1.11, written by Peter Selinger 2001-2013
</metadata>
<g transform="translate(0.000000,400.000000) scale(0.100000,-0.100000)"
fill="#000000" stroke="none">
<path d="M860 3234 c-99 -20 -110 -22 -149 -35 -179 -57 -325 -180 -395 -331
-33 -72 -56 -190 -57 -288 -1 -184 39 -313 137 -441 67 -88 160 -148 294 -192
65 -22 277 -64 407 -82 186 -25 302 -96 338 -205 26 -78 17 -211 -19 -284 -63
-129 -197 -189 -406 -182 -117 5 -194 22 -290 67 -100 46 -135 72 -229 163
l-61 59 -130 -134 c-71 -74 -130 -137 -130 -141 0 -15 134 -140 189 -177 202
-135 355 -180 631 -186 169 -4 251 5 383 41 64 17 178 70 231 106 60 41 163
154 198 218 122 221 122 527 -1 717 -115 178 -285 267 -611 318 -39 6 -132 23
-169 30 -152 29 -249 86 -294 170 -28 52 -34 192 -11 258 46 136 179 201 394
192 58 -2 112 -6 120 -8 139 -35 268 -107 354 -196 l28 -30 72 77 c40 42 98
104 129 137 l56 60 -42 43 c-120 124 -315 220 -522 257 -76 13 -377 13 -445
-1z"/>
<path d="M2329 3198 c-3 -44 -3 -2286 0 -2301 3 -16 20 -17 220 -15 l216 3 0
500 0 500 490 5 489 5 0 170 0 170 -490 5 -489 5 0 305 0 305 543 3 542 2 0
175 0 175 -760 0 c-601 0 -760 -3 -761 -12z"/>
</g>
</svg>
