<?xml version="1.0" standalone="no"?>
<!DOCTYPE svg PUBLIC "-//W3C//DTD SVG 20010904//EN"
 "http://www.w3.org/TR/2001/REC-SVG-20010904/DTD/svg10.dtd">
<svg version="1.0" xmlns="http://www.w3.org/2000/svg"
 width="400.000000pt" height="400.000000pt" viewBox="0 0 400.000000 400.000000"
 preserveAspectRatio="xMidYMid meet">
<metadata>
Created by potrace 1.11, written by Peter Selinger 2001-2013
</metadata>
<g transform="translate(0.000000,400.000000) scale(0.100000,-0.100000)"
fill="#000000" stroke="none">
<path d="M814 3704 c-220 -36 -429 -137 -549 -265 -145 -154 -207 -313 -200
-514 8 -241 115 -449 300 -580 98 -70 211 -118 523 -221 312 -104 401 -141
489 -203 103 -72 152 -157 157 -271 7 -160 -84 -310 -228 -376 -168 -77 -431
-67 -594 23 -93 50 -211 151 -295 251 -69 81 -214 333 -256 445 -10 26 -13 27
-87 27 l-76 0 7 -357 c7 -331 12 -520 14 -550 1 -9 23 -13 77 -13 l76 0 60 60
c32 33 64 60 69 60 6 0 29 -11 52 -24 86 -49 327 -127 440 -142 23 -3 62 -10
87 -14 50 -10 360 -6 430 4 349 52 615 225 744 482 54 108 69 172 72 314 4
220 -50 365 -190 506 -143 144 -206 175 -652 325 -161 53 -327 114 -370 133
-182 84 -260 182 -269 335 -10 177 109 322 308 376 72 20 237 13 318 -14 125
-40 254 -145 346 -283 56 -83 146 -257 188 -365 l28 -73 79 0 79 0 -7 363 c-4
199 -7 395 -8 435 l-1 72 -80 0 -80 0 -53 -53 -52 -53 -68 32 c-87 42 -267
102 -362 121 -100 20 -362 24 -466 7z"/>
<path d="M1790 2671 c0 -77 -3 -74 80 -86 25 -4 79 -18 121 -31 87 -28 133
-64 148 -121 8 -26 11 -337 11 -948 l-1 -910 -22 -40 c-37 -66 -99 -90 -277
-109 -25 -3 -48 -5 -52 -5 -5 -1 -8 -32 -8 -71 l0 -70 663 0 663 0 -1 70 c0
38 -2 70 -5 71 -3 0 -12 2 -20 3 -8 2 -35 6 -60 9 -80 11 -163 37 -198 64 -64
49 -65 53 -64 508 0 226 1 420 1 433 l1 23 160 -2 c279 -2 370 -41 443 -191
45 -94 69 -164 81 -238 2 -11 20 -16 69 -18 l67 -3 0 521 0 520 -65 0 c-62 0
-65 -1 -71 -27 -24 -108 -78 -234 -124 -286 -77 -88 -162 -113 -392 -116 -152
-2 -166 -1 -169 16 -3 10 -4 225 -4 478 l1 460 285 0 c330 0 404 -6 465 -36
58 -27 155 -124 221 -220 51 -75 123 -207 123 -228 0 -7 27 -11 70 -11 l70 0
0 330 0 330 -1105 0 -1105 0 0 -69z"/>
</g>
</svg>
