<svg xmlns="http://www.w3.org/2000/svg" style="cursor: move;" width="1920" height="966"><g transform="translate(-299.5857988625246,-23.246022880982537) scale(1.148698354997035)"><path class="link" style="stroke-width: 1.45421px; stroke-opacity: 1; stroke: rgb(80, 80, 80);" marker-end="" d="M896,453, 964,393"></path><path class="link" style="stroke-width: 1.81464px; stroke-opacity: 1; stroke: rgb(80, 80, 80);" marker-end="" d="M896,453, 964,433"></path><path class="link" style="stroke-width: 1.93798px; stroke-opacity: 1; stroke: rgb(80, 80, 80);" marker-end="" d="M896,453, 964,473"></path><path class="link" style="stroke-width: 1.04662px; stroke-opacity: 1; stroke: rgb(80, 80, 80);" marker-end="" d="M896,493, 964,393"></path><path class="link" style="stroke-width: 0.345453px; stroke-opacity: 1; stroke: rgb(80, 80, 80);" marker-end="" d="M896,493, 964,433"></path><path class="link" style="stroke-width: 0.29492px; stroke-opacity: 1; stroke: rgb(80, 80, 80);" marker-end="" d="M896,493, 964,473"></path><path class="link" style="stroke-width: 0.26605px; stroke-opacity: 1; stroke: rgb(80, 80, 80);" marker-end="" d="M964,393, 1032,393"></path><path class="link" style="stroke-width: 0.394854px; stroke-opacity: 1; stroke: rgb(80, 80, 80);" marker-end="" d="M964,393, 1032,433"></path><path class="link" style="stroke-width: 0.540935px; stroke-opacity: 1; stroke: rgb(80, 80, 80);" marker-end="" d="M964,393, 1032,473"></path><path class="link" style="stroke-width: 1.84688px; stroke-opacity: 1; stroke: rgb(80, 80, 80);" marker-end="" d="M964,393, 1032,513"></path><path class="link" style="stroke-width: 1.62886px; stroke-opacity: 1; stroke: rgb(80, 80, 80);" marker-end="" d="M964,393, 1032,553"></path><path class="link" style="stroke-width: 0.968046px; stroke-opacity: 1; stroke: rgb(80, 80, 80);" marker-end="" d="M964,433, 1032,393"></path><path class="link" style="stroke-width: 1.1984px; stroke-opacity: 1; stroke: rgb(80, 80, 80);" marker-end="" d="M964,433, 1032,433"></path><path class="link" style="stroke-width: 0.764709px; stroke-opacity: 1; stroke: rgb(80, 80, 80);" marker-end="" d="M964,433, 1032,473"></path><path class="link" style="stroke-width: 0.751978px; stroke-opacity: 1; stroke: rgb(80, 80, 80);" marker-end="" d="M964,433, 1032,513"></path><path class="link" style="stroke-width: 0.0814367px; stroke-opacity: 1; stroke: rgb(80, 80, 80);" marker-end="" d="M964,433, 1032,553"></path><path class="link" style="stroke-width: 0.546292px; stroke-opacity: 1; stroke: rgb(80, 80, 80);" marker-end="" d="M964,473, 1032,393"></path><path class="link" style="stroke-width: 0.555392px; stroke-opacity: 1; stroke: rgb(80, 80, 80);" marker-end="" d="M964,473, 1032,433"></path><path class="link" style="stroke-width: 1.24818px; stroke-opacity: 1; stroke: rgb(80, 80, 80);" marker-end="" d="M964,473, 1032,473"></path><path class="link" style="stroke-width: 1.8158px; stroke-opacity: 1; stroke: rgb(80, 80, 80);" marker-end="" d="M964,473, 1032,513"></path><path class="link" style="stroke-width: 1.72201px; stroke-opacity: 1; stroke: rgb(80, 80, 80);" marker-end="" d="M964,473, 1032,553"></path><path class="link" style="stroke-width: 0.834799px; stroke-opacity: 1; stroke: rgb(80, 80, 80);" marker-end="" d="M1032,393, 1100,433"></path><path class="link" style="stroke-width: 0.696673px; stroke-opacity: 1; stroke: rgb(80, 80, 80);" marker-end="" d="M1032,433, 1100,433"></path><path class="link" style="stroke-width: 0.57537px; stroke-opacity: 1; stroke: rgb(80, 80, 80);" marker-end="" d="M1032,473, 1100,433"></path><path class="link" style="stroke-width: 1.07985px; stroke-opacity: 1; stroke: rgb(80, 80, 80);" marker-end="" d="M1032,513, 1100,433"></path><path class="link" style="stroke-width: 0.452502px; stroke-opacity: 1; stroke: rgb(80, 80, 80);" marker-end="" d="M1032,553, 1100,433"></path><path class="link" style="stroke-width: 1.64774px; stroke-opacity: 1; stroke: rgb(80, 80, 80);" marker-end="" d="M1032,393, 1100,473"></path><path class="link" style="stroke-width: 1.50856px; stroke-opacity: 1; stroke: rgb(80, 80, 80);" marker-end="" d="M1032,393, 1100,513"></path><path class="link" style="stroke-width: 0.0975346px; stroke-opacity: 1; stroke: rgb(80, 80, 80);" marker-end="" d="M1032,433, 1100,473"></path><path class="link" style="stroke-width: 1.08768px; stroke-opacity: 1; stroke: rgb(80, 80, 80);" marker-end="" d="M1032,433, 1100,513"></path><path class="link" style="stroke-width: 0.0789295px; stroke-opacity: 1; stroke: rgb(80, 80, 80);" marker-end="" d="M1032,473, 1100,473"></path><path class="link" style="stroke-width: 0.507219px; stroke-opacity: 1; stroke: rgb(80, 80, 80);" marker-end="" d="M1032,473, 1100,513"></path><path class="link" style="stroke-width: 0.618054px; stroke-opacity: 1; stroke: rgb(80, 80, 80);" marker-end="" d="M1032,513, 1100,473"></path><path class="link" style="stroke-width: 0.920861px; stroke-opacity: 1; stroke: rgb(80, 80, 80);" marker-end="" d="M1032,513, 1100,513"></path><path class="link" style="stroke-width: 1.10542px; stroke-opacity: 1; stroke: rgb(80, 80, 80);" marker-end="" d="M1032,553, 1100,473"></path><path class="link" style="stroke-width: 1.99029px; stroke-opacity: 1; stroke: rgb(80, 80, 80);" marker-end="" d="M1032,553, 1100,513"></path><path class="link" style="stroke-width: 0.60035px; stroke-opacity: 1; stroke: rgb(80, 80, 80);" marker-end="" d="M896,453, 964,513"></path><path class="link" style="stroke-width: 1.062px; stroke-opacity: 1; stroke: rgb(80, 80, 80);" marker-end="" d="M896,453, 964,553"></path><path class="link" style="stroke-width: 1.28487px; stroke-opacity: 1; stroke: rgb(80, 80, 80);" marker-end="" d="M896,493, 964,513"></path><path class="link" style="stroke-width: 0.779097px; stroke-opacity: 1; stroke: rgb(80, 80, 80);" marker-end="" d="M896,493, 964,553"></path><path class="link" style="stroke-width: 1.78091px; stroke-opacity: 1; stroke: rgb(80, 80, 80);" marker-end="" d="M964,513, 1032,393"></path><path class="link" style="stroke-width: 1.85136px; stroke-opacity: 1; stroke: rgb(80, 80, 80);" marker-end="" d="M964,513, 1032,433"></path><path class="link" style="stroke-width: 1.71985px; stroke-opacity: 1; stroke: rgb(80, 80, 80);" marker-end="" d="M964,513, 1032,473"></path><path class="link" style="stroke-width: 0.133944px; stroke-opacity: 1; stroke: rgb(80, 80, 80);" marker-end="" d="M964,513, 1032,513"></path><path class="link" style="stroke-width: 1.10546px; stroke-opacity: 1; stroke: rgb(80, 80, 80);" marker-end="" d="M964,513, 1032,553"></path><path class="link" style="stroke-width: 0.37164px; stroke-opacity: 1; stroke: rgb(80, 80, 80);" marker-end="" d="M964,553, 1032,393"></path><path class="link" style="stroke-width: 0.176589px; stroke-opacity: 1; stroke: rgb(80, 80, 80);" marker-end="" d="M964,553, 1032,433"></path><path class="link" style="stroke-width: 0.436394px; stroke-opacity: 1; stroke: rgb(80, 80, 80);" marker-end="" d="M964,553, 1032,473"></path><path class="link" style="stroke-width: 1.14085px; stroke-opacity: 1; stroke: rgb(80, 80, 80);" marker-end="" d="M964,553, 1032,513"></path><path class="link" style="stroke-width: 0.25735px; stroke-opacity: 1; stroke: rgb(80, 80, 80);" marker-end="" d="M964,553, 1032,553"></path><circle r="10" class="node" id="0_0" style="fill: rgb(255, 255, 255); stroke: rgb(51, 51, 51);" cx="896" cy="453"></circle><circle r="10" class="node" id="0_1" style="fill: rgb(255, 255, 255); stroke: rgb(51, 51, 51);" cx="896" cy="493"></circle><circle r="10" class="node" id="1_0" style="fill: rgb(255, 255, 255); stroke: rgb(51, 51, 51);" cx="964" cy="393"></circle><circle r="10" class="node" id="1_1" style="fill: rgb(255, 255, 255); stroke: rgb(51, 51, 51);" cx="964" cy="433"></circle><circle r="10" class="node" id="1_2" style="fill: rgb(255, 255, 255); stroke: rgb(51, 51, 51);" cx="964" cy="473"></circle><circle r="10" class="node" id="1_3" style="fill: rgb(255, 255, 255); stroke: rgb(51, 51, 51);" cx="964" cy="513"></circle><circle r="10" class="node" id="1_4" style="fill: rgb(255, 255, 255); stroke: rgb(51, 51, 51);" cx="964" cy="553"></circle><circle r="10" class="node" id="2_0" style="fill: rgb(255, 255, 255); stroke: rgb(51, 51, 51);" cx="1032" cy="393"></circle><circle r="10" class="node" id="2_1" style="fill: rgb(255, 255, 255); stroke: rgb(51, 51, 51);" cx="1032" cy="433"></circle><circle r="10" class="node" id="2_2" style="fill: rgb(255, 255, 255); stroke: rgb(51, 51, 51);" cx="1032" cy="473"></circle><circle r="10" class="node" id="2_3" style="fill: rgb(255, 255, 255); stroke: rgb(51, 51, 51);" cx="1032" cy="513"></circle><circle r="10" class="node" id="2_4" style="fill: rgb(255, 255, 255); stroke: rgb(51, 51, 51);" cx="1032" cy="553"></circle><circle r="10" class="node" id="3_0" style="fill: rgb(255, 255, 255); stroke: rgb(51, 51, 51);" cx="1100" cy="433"></circle><text class="text" dy=".35em" style="font-size: 12px;" x="861" y="593"></text><text class="text" dy=".35em" style="font-size: 12px;" x="929" y="593"></text><text class="text" dy=".35em" style="font-size: 12px;" x="997" y="593"></text><text class="text" dy=".35em" style="font-size: 12px;" x="1065" y="593"></text><circle r="10" class="node" id="3_1" style="fill: rgb(255, 255, 255); stroke: rgb(51, 51, 51);" cx="1100" cy="473"></circle><circle r="10" class="node" id="3_2" style="fill: rgb(255, 255, 255); stroke: rgb(51, 51, 51);" cx="1100" cy="513"></circle></g><defs><marker id="arrow" viewBox="0 -5 10 10" markerWidth="7" markerHeight="7" orient="auto" refX="40"><path d="M0,-5L10,0L0,5" style="stroke: rgb(80, 80, 80); fill: none;"></path></marker></defs></svg>